<svg id="Layer_1" data-name="Layer 1" xmlns="http://www.w3.org/2000/svg" viewBox="0 0 566.93 134.65"><defs><style>.cls-1{fill:#231f20;}.cls-2{fill:#fff;}.cls-3{fill:#080808;}.cls-4{fill:#fff200;}</style></defs><path class="cls-1" d="M114.71,68.16A52.74,52.74,0,1,1,62,15.42a52.74,52.74,0,0,1,52.74,52.74"/><path class="cls-2" d="M90.05,24.44c1.81,5.23,2.12,10.23-1.87,14.76a13.52,13.52,0,0,1-19.32.85,12.62,12.62,0,0,1,.43-18.94c1.31-1.12,1.21-1.86.09-2.89-.69-.64-1.27-1.39-1.9-2.09C63.32,8.83,65,9.61,60,15.22c0,.06,0,.18,0,.27a70.48,70.48,0,0,0-6.81,7.12c-.49.54-1,1.54-1.75,1.06-1.12-.72.29-1.14.5-1.72.75-2,1.52-4,2.29-6L54,15.72l-.24.09c.37.29.47,0,.55-.26,2.1-3.14,3.65-6.63,6.24-9.47S65,2.91,68,5.52c3.62,3.1,7.09,6.35,8.93,10.91a1.7,1.7,0,0,0,1.66,1.23,14.55,14.55,0,0,1,11,6.21c.09.31.15.66.62.54Z"/><path class="cls-2" d="M51.49,77.9c-.19.18-.48.31-.26.65,3.26,5,3,8.36-.94,12.93C45,97.65,39.1,103.28,33.22,108.91c-.67.65-1.29,1.37-1.93,2-5.32,5-10.63,10-16,14.9q-2.82,2.6-5.83,5c-.37.3-1.05,1.12-1.68.34s.1-1.12.5-1.67Q16.6,118,24.83,106.36a6.47,6.47,0,0,0,.48-1Q33.61,94,41.9,82.56c2.31-3.17,4.81-6,9.35-4.14,0,0,.2-.29.31-.45l-.07-.07"/><path class="cls-2" d="M105.33,39c-1.92,5.33-3.45,10.81-6,15.92a41.17,41.17,0,0,1-6.53,9.94c-2,2.21-4.47,3.06-7.18,2-6.7-2.53-13-5.79-17.76-11.36C66.43,53.84,65.57,52.1,67,50s3.43-2.56,5.74-2c5,1.36,8.89,4.54,12.35,8.26,2.69,2.88,2.58,2.87,5-.09,3.69-4.57,7.41-9.11,11.24-13.56,1.2-1.38,1.34-3.58,3.38-4.28l.61.68"/><path class="cls-2" d="M102.86,34.87a3,3,0,0,0-.52.23c-1.18.72-2.45,2-3.79,1s-.61-2.69,0-3.9c1.38-2.68-.87-3.63-2.17-5.06-.37-1.07-.67-2.42,1.09-1.32,2.66,1.67,4.53,1.09,6.43-1.17.8-.94,2.17-2,3.51-1s.87,2.61.23,3.65c-1.78,2.88-.45,4.42,2,5.71a5.51,5.51,0,0,1,1.4,1c2.13,2.23,4.08,2.56,6.13-.18.79-1.06,2.19-1.94,3.5-1.1s.78,2.34.34,3.61c-1.28,3.69-1.27,3.69,1.18,7.47-.13.1-.33.33-.39.3-2.71-1.5-5.2-1.65-7.42,1a1.89,1.89,0,0,1-2.39.25,1.67,1.67,0,0,1-.62-2.27c2.26-3.8-.69-5.07-3.08-6.65a29.13,29.13,0,0,1-2.79-2c-1.16-1-2-.76-2.65.51"/><path class="cls-2" d="M9.6,59.91c.66,1.59,1.43.63,2,0A11.1,11.1,0,0,1,15.06,57c1.83-.92,2.92-.12,2.76,2,0,.28-.18.55-.19.83-.06,1.59-2.12,2.93-1.12,4.4.85,1.24,2.56,1.88,3.89,2.8a9.17,9.17,0,0,1,1.38,1c1.54,1.57,2.78,1.59,4.36-.19,1-1.15,2.49-3,4.28-1.78s.75,3.45-.16,4.64c-2.33,3,.57,4.46,2,6.59-.77,0-1.24.15-1.48,0-2.3-1.65-4.24-1.4-6.15.73a2.3,2.3,0,0,1-3.11.48c-1-.75-.75-2-.27-2.88,1.22-2.34.54-3.9-1.76-4.93a.66.66,0,0,1-.23-.17c-3.18-3.23-6.45-4-9.89-.37A2.43,2.43,0,0,1,8,66.43c1.45-2.72.54-4.52-1.57-6.2a5.23,5.23,0,0,1-.82-1.31c1.71-.49,2.71.95,4,1"/><path class="cls-3" d="M90.25,24.41c-.47.12-.53-.23-.62-.54.82-.52.55.21.62.54"/><path class="cls-3" d="M54.31,15.55c-.08.31-.18.55-.55.25l.55-.25"/><path class="cls-2" d="M49.23,117.25c3-4,6.91-7.17,10.2-10.92,5.24-6,10.74-11.73,16.18-17.52,1.3-1.37,1.84-2-.65-2.54-7.14-1.46-14.2-3.22-20.64-6.87-.9-.51-1.52-1.74-2.83-1.5l.07.07c0-.09.1-.23.06-.27-1.77-1.93-4.21-3.9-2.37-6.77s4.63-4.78,8.57-4.38c11.7,1.17,21.77,6.29,31.1,13,4.37,3.12,4.51,5.56,1.2,9.82-3.93,5.06-8.94,9-14.17,12.62-7.79,5.43-16.08,10-24.33,14.69-.7.4-1.41,1.4-2.46.58Z"/><path class="cls-2" d="M20.93,64.89C24.58,54.75,28,45.5,35.26,38.24a11,11,0,0,1,8.41-3.51c7.41.3,14.75,1.18,21.51,4.57,1.22.61,3,1.14,2.95,2.74A5.06,5.06,0,0,1,65,46.16c-3.83,1.93-7.78,1.2-11.68.33a29.84,29.84,0,0,1-9.24-3.56c-1.87-1.16-2.93-.73-4.23.91-5.42,6.83-11.92,12.7-17.25,19.6a15.22,15.22,0,0,1-1.68,1.45"/><path class="cls-2" d="M63.6,54.7A11,11,0,0,1,59,62.9c-2.88,2.1-5.67.87-6.23-2.67S54.72,51.64,58,49.84s5.59.06,5.62,4.86"/><path class="cls-2" d="M49.16,117.21c.5.3.14.51-.08.72,0,0-.22-.17-.34-.26l.49-.42-.07,0"/><polygon class="cls-4" points="108.64 97.26 108.64 57.79 148.61 57.79 148.61 67.41 124.23 67.41 124.23 73.43 146.67 73.43 146.67 83.05 124.23 83.05 124.23 97.26 108.64 97.26"/><rect class="cls-4" x="152.81" y="57.79" width="15.59" height="39.47"/><polygon class="cls-4" points="186.58 97.26 186.58 67.74 172.15 67.74 172.15 57.79 216.59 57.79 216.59 67.74 202.17 67.74 202.17 97.26 186.58 97.26"/><polygon class="cls-4" points="220.19 97.26 220.19 57.79 237.99 57.79 253.79 79.68 253.96 79.68 253.96 57.79 268.88 57.79 268.88 97.26 251.75 97.26 235.11 75.14 235.11 97.26 220.19 97.26"/><polygon class="cls-4" points="276.51 97.26 276.51 57.79 318.46 57.79 318.46 67.41 292.1 67.41 292.1 72.71 316.58 72.71 316.58 82.33 292.1 82.33 292.1 87.64 318.46 87.64 318.46 97.26 276.51 97.26"/><path class="cls-4" d="M350.25,83.16l-17.8-2.65q-10.79-1.61-10.78-11.11,0-13,22.83-13,12.87,0,19.07,3.31a11.23,11.23,0,0,1,6.3,9.62H351.74q0-4-7.24-4-6.25,0-6.25,2.82c0,1.18.68,1.86,2.05,2L358.92,73q12.72,1.88,12.72,11.5a11.44,11.44,0,0,1-6.14,10.69q-6.13,3.46-19.23,3.46-11.22,0-17-2.27-8.07-3.15-8.12-11h18.79a3.34,3.34,0,0,0,2.49,3.21,16.74,16.74,0,0,0,4.48.44c4.12,0,6.19-1.07,6.19-3.21,0-1.47-.94-2.35-2.82-2.65"/><path class="cls-4" d="M403.42,83.16l-17.8-2.65q-10.77-1.61-10.78-11.11,0-13,22.83-13,12.88,0,19.07,3.31a11.19,11.19,0,0,1,6.3,9.62H404.91q0-4-7.24-4-6.24,0-6.24,2.82c0,1.18.68,1.86,2,2L412.1,73q12.7,1.88,12.71,11.5a11.43,11.43,0,0,1-6.13,10.69q-6.14,3.46-19.24,3.46-11.22,0-17-2.27-8.07-3.15-8.13-11h18.79a3.37,3.37,0,0,0,2.49,3.21,16.74,16.74,0,0,0,4.48.44q6.19,0,6.19-3.21c0-1.47-.94-2.35-2.82-2.65"/><polygon class="cls-4" points="485.61 97.26 485.61 81.5 468.09 81.5 468.09 97.26 452.5 97.26 452.5 57.79 468.09 57.79 468.09 71.55 485.61 71.55 485.61 57.79 501.2 57.79 501.2 97.26 485.61 97.26"/><path class="cls-4" d="M533.09,86.26l6.42-6.91,3.81,3.37a15.35,15.35,0,0,0,.78-5.2q0-11.16-10.4-11.16T523.31,77.52q0,11.17,10.39,11.17c.45,0,1.07,0,1.88-.11Zm21.06,19.12-8.67-7.85a50.21,50.21,0,0,1-11.78,1.11q-11.1,0-17-2.88-10-4.86-9.95-18.24t9.95-18.24q5.91-2.87,17-2.87t17,2.87q9.94,4.86,9.95,18.24,0,10.29-5.81,15.42l5.81,5.2Z"/></svg>